<?xml version="1.0" standalone="no"?>
<!DOCTYPE svg PUBLIC "-//W3C//DTD SVG 20010904//EN"
 "http://www.w3.org/TR/2001/REC-SVG-20010904/DTD/svg10.dtd">
<svg version="1.0" xmlns="http://www.w3.org/2000/svg"
 width="1024.000000pt" height="716.000000pt" viewBox="0 0 1024.000000 716.000000"
 preserveAspectRatio="xMidYMid meet">

<g transform="translate(0.000000,716.000000) scale(0.100000,-0.100000)"
fill="#000000" stroke="none">
<path d="M3145 4948 c-5 -14 -75 -307 -75 -314 0 -2 81 36 180 86 99 50 180
94 180 98 0 6 -262 142 -275 142 -3 0 -8 -6 -10 -12z"/>
<path d="M3971 4885 l-113 -74 162 -81 c89 -45 164 -79 166 -77 5 4 -85 289
-94 299 -4 4 -58 -26 -121 -67z"/>
<path d="M4022 4227 c-28 -30 -28 -68 1 -95 30 -28 68 -28 95 1 28 30 28 68
-1 95 -30 28 -68 28 -95 -1z"/>
<path d="M5572 4227 c-28 -30 -28 -68 1 -95 30 -28 68 -28 95 1 28 30 28 68
-1 95 -30 28 -68 28 -95 -1z"/>
<path d="M6072 4227 c-28 -30 -28 -68 1 -95 30 -28 68 -28 95 1 28 30 28 68
-1 95 -30 28 -68 28 -95 -1z"/>
<path d="M3675 3918 c-94 -51 -61 -188 45 -188 33 0 48 6 71 29 78 79 -19 213
-116 159z"/>
<path d="M5931 3598 c-11 -18 -23 -52 -27 -75 -14 -92 24 -198 68 -191 39 5
63 63 63 148 0 125 -59 193 -104 118z"/>
<path d="M3536 3540 c-129 -41 -50 -139 103 -128 178 13 171 128 -9 135 -36 1
-78 -2 -94 -7z"/>
</g>
</svg>
